<svg width="101" height="150" viewBox="0 0 101 150" fill="none" xmlns="http://www.w3.org/2000/svg">
<g id="Frame">
<g id="forward-leg">
<path id="Vector" d="M26.1365 143.159C25.3725 144.742 23.4544 145.44 21.8522 144.718C20.3923 144.061 19.6772 142.434 20.1827 140.921L24.9002 126.793C25.6863 124.439 28.3919 123.261 30.6626 124.283C32.7436 125.22 33.6262 127.646 32.6339 129.702L26.1365 143.159Z" fill="#FEB8B8"/>
<path id="Vector_2" d="M14.3332 142.187H27.1819V150H6.2431C6.2431 147.928 7.09546 145.94 8.61265 144.475C10.1298 143.01 12.1876 142.187 14.3332 142.187Z" fill="#2F2E41"/>
<path id="Vector_3" d="M29.7759 136.561C29.4847 136.561 29.196 136.51 28.9235 136.411L24.022 134.636C23.4717 134.435 23.0145 134.05 22.7338 133.55C22.4531 133.051 22.3675 132.471 22.4928 131.915C23.7268 126.557 27.9324 108.313 30.2354 98.5284C32.9664 86.9218 72.8091 84.765 74.5038 84.679L74.6433 84.6719L79.1236 90.1106C80.7431 95.138 80.2298 99.0593 77.5979 101.766C69.9181 109.661 46.9878 104.763 44.2537 104.143L32.0652 135.04C31.8876 135.487 31.5737 135.872 31.1649 136.143C30.7561 136.415 30.2716 136.56 29.7755 136.56L29.7759 136.561Z" fill="#2F2E41"/>
</g>
<g id="backward-leg">
<path id="Vector_4" d="M19.8128 143.309L14.3794 141.352L18.3708 116.369L26.39 119.257L19.8128 143.309Z" fill="#FEB8B8"/>
<path id="Vector_5" d="M10.2127 137.734L22.4722 141.45L20.0498 148.904L0.0717163 142.849C0.389827 141.871 0.904477 140.962 1.58629 140.175C2.2681 139.388 3.10372 138.738 4.04543 138.263C4.98714 137.788 6.0165 137.497 7.07475 137.406C8.13299 137.316 9.19939 137.427 10.2131 137.734H10.2127Z" fill="#2F2E41"/>
<path id="Vector_6" d="M22.7111 132.887C22.42 132.887 22.1313 132.836 21.8588 132.737L16.9557 130.962C16.4055 130.761 15.9483 130.376 15.6676 129.876C15.387 129.377 15.3014 128.797 15.4265 128.242C16.6605 122.883 20.8662 104.64 23.1691 94.8547C25.9002 83.2481 65.7429 81.0914 67.4375 81.0053L67.577 80.9982L72.059 86.4353C73.6785 91.4628 73.1651 95.3841 70.5332 98.0909C62.853 105.988 39.9232 101.088 37.189 100.468L25.0021 131.366C24.8245 131.813 24.5105 132.198 24.1017 132.47C23.6929 132.741 23.2085 132.887 22.7123 132.887H22.7111Z" fill="#2F2E41"/>
</g>
<g id="body">
<path id="Vector_7" d="M15.5949 60.9738C15.7749 61.2065 15.9357 61.4525 16.0757 61.7095L42.878 64.4365L46.7369 59.3275L55.481 63.9429L47.9031 76.3401L15.0323 68.2459C14.203 69.0268 13.1472 69.5453 12.0053 69.7326C10.8634 69.9198 9.68949 69.7668 8.63978 69.2941C7.59007 68.8213 6.71426 68.0511 6.12885 67.0859C5.54344 66.1207 5.27617 65.0062 5.36258 63.8907C5.44898 62.7752 5.88498 61.7116 6.61257 60.8412C7.34017 59.9709 8.32488 59.3351 9.43575 59.0184C10.5466 58.7017 11.731 58.7192 12.8313 59.0684C13.9317 59.4176 14.8959 60.0821 15.5957 60.9734L15.5949 60.9738Z" fill="#FEB8B8"/>
<path id="Vector_8" d="M77.8793 92.1923C77.4917 92.1915 77.11 92.1017 76.7654 91.9304C71.406 89.2985 60.9699 84.7406 51.2924 83.7869C50.9612 83.7555 50.6405 83.6576 50.3508 83.4995C50.0611 83.3414 49.8088 83.1265 49.6102 82.8686C49.4077 82.608 49.263 82.31 49.185 81.993C49.1071 81.676 49.0976 81.3469 49.1573 81.0262C50.0305 76.3576 52.0336 64.4693 51.7756 54.9417C51.6996 52.0122 52.658 49.1448 54.4931 46.8111C56.3283 44.4774 58.931 42.8161 61.8734 42.1004C63.6443 41.6491 65.443 41.3065 67.2588 41.0747C69.3464 40.8194 71.4668 41.0398 73.4503 41.7183C75.4339 42.3967 77.2253 43.5144 78.6811 44.9817C80.1369 46.4491 81.2167 48.2253 81.8339 50.1681C82.4511 52.1109 82.5885 54.1664 82.2353 56.1697C80.5096 66.0435 78.7696 79.8341 80.2818 89.4608C80.3512 89.8923 80.2957 90.334 80.1212 90.7368C79.9468 91.1397 79.6603 91.488 79.2934 91.7433C78.883 92.0335 78.388 92.1907 77.8793 92.1923Z" fill="#CCCCCC"/>
<path id="Vector_9" d="M52.2722 67.0786C51.9381 67.0781 51.6077 67.0115 51.3012 66.8829L44.3192 63.9644C43.7245 63.715 43.2565 63.2479 43.0179 62.6657C42.7793 62.0835 42.7896 61.4336 43.0465 60.8587L48.4435 48.8181C48.7641 48.0885 49.2303 47.427 49.8156 46.8714C50.4009 46.3158 51.0938 45.877 51.8547 45.58C52.6156 45.283 53.4296 45.1337 54.2503 45.1405C55.0709 45.1474 55.8821 45.3102 56.6376 45.6198C57.3931 45.9295 58.078 46.3797 58.6533 46.945C59.2286 47.5103 59.683 48.1794 59.9905 48.9143C60.298 49.6491 60.4526 50.4353 60.4455 51.2278C60.4384 52.0204 60.2698 52.8038 59.9492 53.5334C59.9375 53.56 59.9257 53.5864 59.9136 53.6128L54.5166 65.6538C54.3266 66.0764 54.0131 66.4363 53.6144 66.6894C53.2157 66.9425 52.7493 67.0778 52.2722 67.0786Z" fill="#CCCCCC"/>
<path id="Vector_10" d="M45.814 88.881C44.9296 88.8799 44.0565 88.6894 43.2576 88.3233C42.4586 87.9571 41.7537 87.4244 41.1936 86.7634C40.6334 86.1025 40.2321 85.3298 40.0184 84.501C39.8047 83.6722 39.7841 82.808 39.9579 81.9705C40.1317 81.1331 40.4956 80.3433 41.0235 79.6581C41.5514 78.9729 42.2301 78.4092 43.0107 78.0078C43.7913 77.6064 44.6544 77.3772 45.5378 77.3367C46.4211 77.2962 47.3028 77.4454 48.1193 77.7736C48.3649 77.8737 48.6029 77.9903 48.8318 78.1223L73.1456 67.5814L73.8286 61.213L84.3093 60.9421L84.2399 71.5443C84.2272 72.7727 83.8047 73.9643 83.035 74.9423C82.2654 75.9203 81.1897 76.6325 79.9676 76.9732L51.5353 84.7879C51.4805 84.9692 51.4158 85.1477 51.3416 85.3225C50.8854 86.3748 50.1178 87.2738 49.1351 87.9067C48.1523 88.5396 46.998 88.8784 45.8167 88.8806L45.814 88.881Z" fill="#FEB8B8"/>
<path id="Vector_11" d="M83.4221 66.137C83.124 66.2827 82.7982 66.3677 82.4647 66.387L74.8709 66.8378C74.2238 66.8755 73.5876 66.6638 73.1019 66.2491C72.6162 65.8344 72.3207 65.2506 72.2801 64.6257L71.4467 51.5296C71.3469 49.9329 71.9074 48.3633 73.0051 47.1655C74.1028 45.9677 75.648 45.2397 77.3012 45.1415C78.9543 45.0432 80.5802 45.5828 81.8217 46.6416C83.0632 47.7004 83.8187 49.1919 83.9223 50.7883L84.756 63.8845C84.785 64.3445 84.6742 64.8027 84.4374 65.2028C84.2006 65.603 83.848 65.9276 83.4229 66.137H83.4221Z" fill="#CCCCCC"/>
<path id="Vector_12" d="M68.1308 86.5312H22.7736C22.3932 86.5312 22.0847 86.8291 22.0847 87.1965V89.5396C22.0847 89.907 22.3932 90.2049 22.7736 90.2049H68.1308C68.5112 90.2049 68.8196 89.907 68.8196 89.5396V87.1965C68.8196 86.8291 68.5112 86.5312 68.1308 86.5312Z" fill="#07014E"/>
<path id="Vector_13" d="M4.65662 86.7938V61.0771C4.65774 60.1727 5.03026 59.3056 5.69245 58.6661C6.35463 58.0266 7.25243 57.6668 8.18891 57.6658H56.5542C57.4907 57.6667 58.3885 58.0265 59.0507 58.666C59.713 59.3055 60.0854 60.1727 60.0865 61.0771V86.7938C60.0854 87.6982 59.713 88.5654 59.0507 89.2049C58.3885 89.8444 57.4907 90.2042 56.5542 90.2052H8.18891C7.25243 90.2041 6.35463 89.8443 5.69245 89.2048C5.03026 88.5653 4.65774 87.6982 4.65662 86.7938Z" fill="#07014E"/>
<path id="Vector_14" d="M32.9532 77.0858C34.754 77.0858 36.2139 75.6759 36.2139 73.9367C36.2139 72.1975 34.754 70.7877 32.9532 70.7877C31.1523 70.7877 29.6925 72.1975 29.6925 73.9367C29.6925 75.6759 31.1523 77.0858 32.9532 77.0858Z" fill="white"/>
</g>
<g id="head">
<path id="Vector_15" d="M68.8105 35.3436C77.214 35.3436 84.0264 28.7644 84.0264 20.6486C84.0264 12.5328 77.214 5.9536 68.8105 5.9536C60.407 5.9536 53.5946 12.5328 53.5946 20.6486C53.5946 28.7644 60.407 35.3436 68.8105 35.3436Z" fill="#EECB4F"/>
<path id="Vector_16" d="M68.2542 36.9789C75.6257 36.9789 81.6015 31.2076 81.6015 24.0885C81.6015 16.9693 75.6257 11.1981 68.2542 11.1981C60.8827 11.1981 54.9069 16.9693 54.9069 24.0885C54.9069 31.2076 60.8827 36.9789 68.2542 36.9789Z" fill="#FEB8B8"/>
<path id="Vector_17" d="M69.4477 6.89496C72.1081 4.2888 75.3278 2.27755 78.8799 1.00281C81.1345 0.0868054 83.6074 -0.209603 86.0255 0.146319C88.4094 0.609549 90.6635 2.20204 91.3287 4.46095C91.8712 6.30788 91.3109 8.29662 90.4671 10.0362C89.6232 11.7757 88.4966 13.3873 87.8139 15.1908C87.1175 17.0311 86.908 19.0102 87.2045 20.9485C87.501 22.8868 88.2941 24.7229 89.5118 26.2901C90.7294 27.8573 92.3331 29.106 94.1772 29.9228C96.0213 30.7395 98.0475 31.0985 100.072 30.9672C97.7296 31.2707 95.5708 32.3337 93.2814 32.8991C90.9921 33.4645 88.2901 33.4267 86.5888 31.8424C84.7888 30.1665 84.7527 27.4417 84.8399 25.0287L85.2274 14.2666C85.2932 12.4373 85.3498 10.5492 84.6663 8.84105C83.9829 7.13294 82.3595 5.63811 80.4642 5.65382C79.0275 5.66542 77.7564 6.50619 76.6041 7.33499C75.4519 8.16379 74.2326 9.04797 72.8018 9.17145C71.371 9.29493 69.7371 8.27343 69.8441 6.88897" fill="#EECB4F"/>
</g>
</g>
</svg>
