<svg width="158" height="24" viewBox="0 0 158 24" fill="none" xmlns="http://www.w3.org/2000/svg">
<path id="text-animation" d="M13.64 5.96C14.088 5.96 14.44 6.104 14.696 6.392C14.968 6.664 15.104 7.032 15.104 7.496V21.584C15.104 22.048 14.968 22.424 14.696 22.712C14.424 23 14.072 23.144 13.64 23.144C13.128 23.144 12.736 22.96 12.464 22.592L3.704 11.192V21.584C3.704 22.048 3.576 22.424 3.32 22.712C3.064 23 2.712 23.144 2.264 23.144C1.816 23.144 1.464 23 1.208 22.712C0.952 22.424 0.824 22.048 0.824 21.584V7.496C0.824 7.032 0.96 6.664 1.232 6.392C1.504 6.104 1.864 5.96 2.312 5.96C2.808 5.96 3.192 6.144 3.464 6.512L12.2 17.864V7.496C12.2 7.032 12.328 6.664 12.584 6.392C12.856 6.104 13.208 5.96 13.64 5.96ZM34.0897 21.152C34.1857 21.36 34.2337 21.568 34.2337 21.776C34.2337 22.144 34.0817 22.456 33.7777 22.712C33.4897 22.968 33.1537 23.096 32.7697 23.096C32.5137 23.096 32.2737 23.032 32.0497 22.904C31.8257 22.76 31.6497 22.544 31.5217 22.256L30.0817 19.04H21.6337L20.1937 22.256C20.0657 22.544 19.8897 22.76 19.6657 22.904C19.4417 23.032 19.1937 23.096 18.9217 23.096C18.5537 23.096 18.2177 22.968 17.9137 22.712C17.6097 22.456 17.4577 22.144 17.4577 21.776C17.4577 21.568 17.5057 21.36 17.6017 21.152L24.2257 6.92C24.3697 6.6 24.5857 6.36 24.8737 6.2C25.1777 6.024 25.4977 5.936 25.8337 5.936C26.1697 5.936 26.4817 6.024 26.7697 6.2C27.0737 6.36 27.2977 6.6 27.4417 6.92L34.0897 21.152ZM22.6897 16.64H29.0257L25.8577 9.512L22.6897 16.64ZM38.1022 23.144C37.6382 23.144 37.2622 23.008 36.9742 22.736C36.7022 22.448 36.5662 22.064 36.5662 21.584V7.544C36.5662 7.08 36.6942 6.72 36.9502 6.464C37.2222 6.208 37.5902 6.08 38.0542 6.08H43.9582C45.7662 6.08 47.1742 6.536 48.1822 7.448C49.1902 8.344 49.6942 9.608 49.6942 11.24C49.6942 12.872 49.1902 14.144 48.1822 15.056C47.1742 15.968 45.7662 16.424 43.9582 16.424H39.6622V21.584C39.6622 22.064 39.5182 22.448 39.2302 22.736C38.9582 23.008 38.5822 23.144 38.1022 23.144ZM43.5742 14.048C45.7022 14.048 46.7662 13.12 46.7662 11.264C46.7662 9.408 45.7022 8.48 43.5742 8.48H39.6622V14.048H43.5742ZM53.9459 23.144C53.4819 23.144 53.1059 23 52.8179 22.712C52.5459 22.424 52.4099 22.048 52.4099 21.584V7.496C52.4099 7.032 52.5459 6.664 52.8179 6.392C53.1059 6.104 53.4819 5.96 53.9459 5.96C54.4259 5.96 54.8019 6.104 55.0739 6.392C55.3619 6.664 55.5059 7.032 55.5059 7.496V21.584C55.5059 22.048 55.3619 22.424 55.0739 22.712C54.8019 23 54.4259 23.144 53.9459 23.144ZM65.0159 23.216C63.7839 23.216 62.6159 23.056 61.5119 22.736C60.4239 22.4 59.5359 21.952 58.8479 21.392C58.4799 21.12 58.2959 20.736 58.2959 20.24C58.2959 19.904 58.3919 19.616 58.5839 19.376C58.7919 19.12 59.0319 18.992 59.3039 18.992C59.5919 18.992 59.9199 19.104 60.2879 19.328C60.9759 19.824 61.6959 20.184 62.4479 20.408C63.1999 20.632 64.0319 20.744 64.9439 20.744C66.1119 20.744 67.0079 20.544 67.6319 20.144C68.2559 19.728 68.5679 19.128 68.5679 18.344C68.5679 17.736 68.2719 17.272 67.6799 16.952C67.1039 16.616 66.1359 16.296 64.7759 15.992C63.3679 15.688 62.2239 15.336 61.3439 14.936C60.4639 14.536 59.7999 14.024 59.3519 13.4C58.9039 12.776 58.6799 11.984 58.6799 11.024C58.6799 10.032 58.9599 9.144 59.5199 8.36C60.0799 7.576 60.8559 6.968 61.8479 6.536C62.8559 6.088 63.9839 5.864 65.2319 5.864C67.5199 5.864 69.3839 6.472 70.8239 7.688C71.0319 7.864 71.1759 8.04 71.2559 8.216C71.3519 8.376 71.3999 8.584 71.3999 8.84C71.3999 9.176 71.2959 9.472 71.0879 9.728C70.8959 9.968 70.6639 10.088 70.3919 10.088C70.2319 10.088 70.0799 10.064 69.9359 10.016C69.8079 9.968 69.6319 9.88 69.4079 9.752C68.7519 9.272 68.1119 8.92 67.4879 8.696C66.8799 8.456 66.1279 8.336 65.2319 8.336C64.1439 8.336 63.2799 8.56 62.6399 9.008C62.0159 9.44 61.7039 10.048 61.7039 10.832C61.7039 11.488 61.9839 11.992 62.5439 12.344C63.1039 12.696 64.0559 13.024 65.3999 13.328C66.8239 13.648 67.9759 14.008 68.8559 14.408C69.7519 14.792 70.4319 15.288 70.8959 15.896C71.3759 16.504 71.6159 17.264 71.6159 18.176C71.6159 19.168 71.3359 20.048 70.7759 20.816C70.2319 21.568 69.4559 22.16 68.4479 22.592C67.4559 23.008 66.3119 23.216 65.0159 23.216ZM65.0399 4.76C64.6719 4.76 64.3039 4.616 63.9359 4.328L61.9439 2.48C61.7039 2.256 61.5839 2.008 61.5839 1.736C61.5839 1.496 61.6719 1.288 61.8479 1.112C62.0239 0.919999 62.2399 0.823999 62.4959 0.823999C62.7679 0.823999 63.0159 0.935999 63.2399 1.16L65.0399 3.008L66.8399 1.16C67.0639 0.935999 67.3119 0.823999 67.5839 0.823999C67.8399 0.823999 68.0559 0.919999 68.2319 1.112C68.4239 1.288 68.5199 1.496 68.5199 1.736C68.5199 1.992 68.3919 2.24 68.1359 2.48L66.1439 4.328C65.8079 4.616 65.4399 4.76 65.0399 4.76ZM79.6571 23.12C79.1771 23.12 78.7931 22.984 78.5051 22.712C78.2331 22.424 78.0971 22.048 78.0971 21.584V8.624H73.7291C72.7691 8.624 72.2891 8.2 72.2891 7.352C72.2891 6.504 72.7691 6.08 73.7291 6.08H85.5611C86.5211 6.08 87.0011 6.504 87.0011 7.352C87.0011 8.2 86.5211 8.624 85.5611 8.624H81.1931V21.584C81.1931 22.048 81.0491 22.424 80.7611 22.712C80.4891 22.984 80.1211 23.12 79.6571 23.12ZM90.3198 23C89.8558 23 89.4878 22.872 89.2158 22.616C88.9598 22.36 88.8318 22 88.8318 21.536V7.544C88.8318 7.08 88.9598 6.72 89.2158 6.464C89.4878 6.208 89.8558 6.08 90.3198 6.08H98.9838C99.4478 6.08 99.8078 6.184 100.064 6.392C100.32 6.6 100.448 6.896 100.448 7.28C100.448 7.68 100.32 7.992 100.064 8.216C99.8078 8.424 99.4478 8.528 98.9838 8.528H91.8558V13.184H98.5038C98.9678 13.184 99.3278 13.288 99.5838 13.496C99.8398 13.704 99.9678 14.008 99.9678 14.408C99.9678 14.792 99.8398 15.088 99.5838 15.296C99.3278 15.504 98.9678 15.608 98.5038 15.608H91.8558V20.552H98.9838C99.4478 20.552 99.8078 20.664 100.064 20.888C100.32 21.096 100.448 21.4 100.448 21.8C100.448 22.184 100.32 22.48 100.064 22.688C99.8078 22.896 99.4478 23 98.9838 23H90.3198ZM124.504 5.96C124.952 5.96 125.312 6.104 125.584 6.392C125.856 6.664 125.992 7.032 125.992 7.496V21.704C125.992 22.152 125.864 22.504 125.608 22.76C125.352 23.016 125.016 23.144 124.6 23.144C124.184 23.144 123.856 23.016 123.616 22.76C123.376 22.504 123.256 22.152 123.256 21.704V11.816L119.176 19.544C118.984 19.896 118.776 20.16 118.552 20.336C118.328 20.496 118.064 20.576 117.76 20.576C117.456 20.576 117.192 20.496 116.968 20.336C116.744 20.176 116.536 19.912 116.344 19.544L112.24 11.936V21.704C112.24 22.136 112.112 22.488 111.856 22.76C111.616 23.016 111.288 23.144 110.872 23.144C110.456 23.144 110.128 23.016 109.888 22.76C109.648 22.504 109.528 22.152 109.528 21.704V7.496C109.528 7.032 109.656 6.664 109.912 6.392C110.184 6.104 110.544 5.96 110.992 5.96C111.616 5.96 112.104 6.304 112.456 6.992L117.784 17.144L123.088 6.992C123.44 6.304 123.912 5.96 124.504 5.96ZM131.196 23.144C130.732 23.144 130.356 23 130.068 22.712C129.796 22.424 129.66 22.048 129.66 21.584V7.496C129.66 7.032 129.796 6.664 130.068 6.392C130.356 6.104 130.732 5.96 131.196 5.96C131.676 5.96 132.052 6.104 132.324 6.392C132.612 6.664 132.756 7.032 132.756 7.496V21.584C132.756 22.048 132.612 22.424 132.324 22.712C132.052 23 131.676 23.144 131.196 23.144ZM144.078 23.144C143.566 23.144 143.142 22.976 142.806 22.64C142.47 22.288 142.302 21.856 142.302 21.344C142.302 20.832 142.47 20.408 142.806 20.072C143.142 19.72 143.566 19.544 144.078 19.544C144.59 19.544 145.014 19.72 145.35 20.072C145.686 20.408 145.854 20.832 145.854 21.344C145.854 21.856 145.686 22.288 145.35 22.64C145.014 22.976 144.59 23.144 144.078 23.144ZM150.031 23.144C149.519 23.144 149.095 22.976 148.759 22.64C148.423 22.288 148.255 21.856 148.255 21.344C148.255 20.832 148.423 20.408 148.759 20.072C149.095 19.72 149.519 19.544 150.031 19.544C150.543 19.544 150.967 19.72 151.303 20.072C151.639 20.408 151.807 20.832 151.807 21.344C151.807 21.856 151.639 22.288 151.303 22.64C150.967 22.976 150.543 23.144 150.031 23.144ZM155.984 23.144C155.472 23.144 155.048 22.976 154.712 22.64C154.376 22.288 154.208 21.856 154.208 21.344C154.208 20.832 154.376 20.408 154.712 20.072C155.048 19.72 155.472 19.544 155.984 19.544C156.496 19.544 156.92 19.72 157.256 20.072C157.592 20.408 157.76 20.832 157.76 21.344C157.76 21.856 157.592 22.288 157.256 22.64C156.92 22.976 156.496 23.144 155.984 23.144Z" fill="#1E3575"/>
</svg>
